<svg width="202" height="50" viewBox="0 0 202 50" fill="none" xmlns="http://www.w3.org/2000/svg">
<path d="M0 17.4243H6.63802L9.24812 29.7635H2.6101L0 17.4243ZM4.22127 23.2365H18.2707L23.4264 24.1689V28.8311L18.2707 29.7635H4.22127V23.2365ZM18.8829 15L30 26.5L18.8829 38L14.8228 34.3014L24.4576 24.7284V28.2716L14.8228 18.6986L18.8829 15Z" fill="#C4B4FF"/>
<path d="M77.56 27.8C77.2667 30.3333 76.3733 32.5733 74.88 34.52C73.4133 36.44 71.4667 37.9333 69.04 39C66.64 40.0667 63.8933 40.6 60.8 40.6C57.3867 40.6 54.3867 39.9467 51.8 38.64C49.24 37.3333 47.24 35.52 45.8 33.2C44.36 30.8533 43.64 28.12 43.64 25C43.64 21.88 44.36 19.16 45.8 16.84C47.24 14.4933 49.24 12.6667 51.8 11.36C54.3867 10.0533 57.3867 9.4 60.8 9.4C63.8933 9.4 66.64 9.93333 69.04 11C71.4667 12.0667 73.4133 13.56 74.88 15.48C76.3733 17.4 77.2667 19.64 77.56 22.2H70.72C70.4533 20.7867 69.88 19.5733 69 18.56C68.12 17.52 66.9867 16.72 65.6 16.16C64.2133 15.6 62.6 15.32 60.76 15.32C58.6533 15.32 56.8267 15.72 55.28 16.52C53.76 17.2933 52.5867 18.4133 51.76 19.88C50.9333 21.32 50.52 23.0267 50.52 25C50.52 26.9733 50.9333 28.6933 51.76 30.16C52.5867 31.6 53.76 32.72 55.28 33.52C56.8267 34.2933 58.6533 34.68 60.76 34.68C62.6 34.68 64.2133 34.4133 65.6 33.88C66.9867 33.32 68.12 32.5333 69 31.52C69.88 30.48 70.4533 29.24 70.72 27.8H77.56ZM80.1559 9.2H86.8359V40H80.1559V9.2ZM111.515 40L110.555 31.68L111.635 28.64L110.555 25.64L111.515 17.24H118.435L117.115 28.64L118.435 40H111.515ZM113.275 28.64C112.848 31.04 112.061 33.1467 110.915 34.96C109.795 36.7467 108.368 38.1333 106.635 39.12C104.928 40.1067 103.008 40.6 100.875 40.6C98.6614 40.6 96.7014 40.1067 94.9947 39.12C93.288 38.1067 91.9547 36.7067 90.9947 34.92C90.0614 33.1067 89.5947 31.0133 89.5947 28.64C89.5947 26.24 90.0614 24.1467 90.9947 22.36C91.9547 20.5467 93.288 19.1467 94.9947 18.16C96.7014 17.1467 98.6614 16.64 100.875 16.64C103.008 16.64 104.928 17.1333 106.635 18.12C108.368 19.1067 109.808 20.5067 110.955 22.32C112.101 24.1067 112.875 26.2133 113.275 28.64ZM96.3547 28.64C96.3547 29.9733 96.6214 31.1467 97.1547 32.16C97.7147 33.1733 98.4747 33.9733 99.4347 34.56C100.395 35.12 101.501 35.4 102.755 35.4C104.008 35.4 105.181 35.12 106.275 34.56C107.395 33.9733 108.381 33.1733 109.235 32.16C110.088 31.1467 110.755 29.9733 111.235 28.64C110.755 27.3067 110.088 26.1333 109.235 25.12C108.381 24.08 107.395 23.28 106.275 22.72C105.181 22.1333 104.008 21.84 102.755 21.84C101.501 21.84 100.395 22.1333 99.4347 22.72C98.4747 23.28 97.7147 24.08 97.1547 25.12C96.6214 26.1333 96.3547 27.3067 96.3547 28.64ZM120.621 17.24H127.381L128.741 25.44V40H122.061V24.72L120.621 17.24ZM139.821 17V22.76C139.128 22.6 138.435 22.48 137.741 22.4C137.048 22.32 136.395 22.28 135.781 22.28C134.448 22.28 133.248 22.56 132.181 23.12C131.115 23.68 130.275 24.5467 129.661 25.72C129.048 26.8933 128.741 28.3733 128.741 30.16L127.341 28.48C127.501 26.8533 127.795 25.3333 128.221 23.92C128.648 22.48 129.235 21.2267 129.981 20.16C130.755 19.0667 131.701 18.2133 132.821 17.6C133.941 16.96 135.275 16.64 136.821 16.64C137.328 16.64 137.835 16.68 138.341 16.76C138.875 16.8133 139.368 16.8933 139.821 17ZM141.712 17L145.032 17.64L148.392 17V40H141.712V17ZM145.032 14.64C143.832 14.64 142.846 14.3333 142.072 13.72C141.326 13.08 140.952 12.24 140.952 11.2C140.952 10.1333 141.326 9.29333 142.072 8.68C142.846 8.04 143.832 7.72 145.032 7.72C146.259 7.72 147.246 8.04 147.992 8.68C148.739 9.29333 149.112 10.1333 149.112 11.2C149.112 12.24 148.739 13.08 147.992 13.72C147.246 14.3333 146.259 14.64 145.032 14.64ZM149.911 22.28V19.32L154.671 17.76L157.511 11.24H161.351V17.24H171.431V22.28H161.351V30.56C161.351 32.32 161.711 33.56 162.431 34.28C163.178 34.9733 164.458 35.32 166.271 35.32C167.418 35.32 168.431 35.2133 169.311 35C170.191 34.7867 171.031 34.48 171.831 34.08V39.28C171.058 39.6 170.031 39.8933 168.751 40.16C167.471 40.4533 166.151 40.6 164.791 40.6C162.418 40.6 160.484 40.2267 158.991 39.48C157.524 38.7067 156.431 37.64 155.711 36.28C155.018 34.92 154.671 33.3333 154.671 31.52V22.28H149.911ZM180.323 47.2C178.829 47.2 177.483 47.0133 176.283 46.64C175.083 46.2667 173.949 45.72 172.883 45V40.2C174.003 40.92 175.069 41.44 176.083 41.76C177.096 42.08 178.216 42.24 179.443 42.24C180.536 42.24 181.509 41.9867 182.363 41.48C183.216 41 183.923 40.1333 184.483 38.88L193.963 17.24H201.043L189.683 41.04C188.989 42.5333 188.149 43.7333 187.163 44.64C186.176 45.5467 185.096 46.2 183.923 46.6C182.776 47 181.576 47.2 180.323 47.2ZM181.763 38.56L171.723 17.24H179.083L188.283 38.56H181.763Z" fill="white"/>
</svg>
