<svg width="327" height="60" viewBox="0 0 327 60" fill="none" xmlns="http://www.w3.org/2000/svg">
<path d="M7.88484 32.4091L16.7433 31.184L17.3226 39.3087L24.4225 35.2946L28.2765 43.3231L20.7469 46.386L26.6933 51.8064L20.2503 57.989L15.037 51.8132L11.6852 59.1735L3.81393 54.9706L8.07526 48.1384L0 47.2338L1.54313 38.4588L9.52014 40.3878L7.88484 32.4091Z" fill="white"/>
<path d="M75.7547 47.7311C75.4942 50.0822 74.6892 52.1484 73.3397 53.9295C71.9902 55.687 70.2146 57.0525 68.0127 58.0262C65.8346 58.9999 63.3249 59.4868 60.4839 59.4868C57.3824 59.4868 54.6715 58.905 52.3513 57.7413C50.0311 56.5776 48.2199 54.9508 46.9177 52.8608C45.6392 50.7709 45 48.3367 45 45.558C45 42.7794 45.6392 40.3452 46.9177 38.2552C48.2199 36.1653 50.0311 34.5385 52.3513 33.3748C54.6715 32.2111 57.3824 31.6293 60.4839 31.6293C63.3249 31.6293 65.8346 32.1161 68.0127 33.0899C70.2146 34.0636 71.9902 35.441 73.3397 37.2222C74.6892 38.9796 75.4942 41.0339 75.7547 43.385H68.3679C68.1311 42.2451 67.6694 41.2832 66.9828 40.4995C66.2962 39.6921 65.3966 39.0746 64.2838 38.6471C63.1947 38.2196 61.9281 38.0059 60.4839 38.0059C58.8266 38.0059 57.3942 38.3146 56.1867 38.9321C54.9793 39.5258 54.0559 40.3926 53.4167 41.5326C52.7774 42.6488 52.4578 43.9906 52.4578 45.558C52.4578 47.1255 52.7774 48.4792 53.4167 49.6191C54.0559 50.7353 54.9793 51.6021 56.1867 52.2196C57.3942 52.8133 58.8266 53.1102 60.4839 53.1102C61.9281 53.1102 63.1947 52.9083 64.2838 52.5046C65.3966 52.1009 66.2962 51.4953 66.9828 50.6878C67.6694 49.8804 68.1311 48.8948 68.3679 47.7311H75.7547Z" fill="white"/>
<path d="M77.7323 38.5759H85.1191L86.3266 45.843V58.9168H79.0818V45.4156L77.7323 38.5759ZM95.8442 38.2552V44.4537C95.1339 44.3112 94.4591 44.2162 93.8199 44.1687C93.2043 44.0975 92.6361 44.0619 92.1153 44.0619C91.0735 44.0619 90.1147 44.2756 89.2387 44.7031C88.3627 45.1068 87.6524 45.7837 87.1079 46.7336C86.587 47.6836 86.3266 48.9541 86.3266 50.5453L84.9415 48.8354C85.1309 47.363 85.4151 45.9855 85.7939 44.7031C86.1727 43.3969 86.6817 42.2451 87.3209 41.2476C87.9839 40.2264 88.8007 39.4308 89.7714 38.8608C90.7421 38.2671 91.9259 37.9703 93.3227 37.9703C93.7252 37.9703 94.1395 37.994 94.5657 38.0415C94.9919 38.089 95.418 38.1602 95.8442 38.2552Z" fill="white"/>
<path d="M107.057 59.4868C105.163 59.4868 103.541 59.0949 102.192 58.3112C100.866 57.5275 99.8478 56.4232 99.1375 54.9982C98.4272 53.5496 98.0721 51.8634 98.0721 49.9397V38.5759H105.317V48.9066C105.317 50.4028 105.684 51.5547 106.418 52.3621C107.152 53.1696 108.205 53.5733 109.578 53.5733C110.596 53.5733 111.449 53.3714 112.135 52.9677C112.822 52.5402 113.355 51.9346 113.734 51.1509C114.112 50.3672 114.302 49.4291 114.302 48.3367L116.539 49.5122C116.279 51.6734 115.687 53.5021 114.763 54.9982C113.864 56.4707 112.751 57.5869 111.425 58.3468C110.099 59.1068 108.643 59.4868 107.057 59.4868ZM115.616 58.9168L114.302 50.7591V38.5759H121.546V51.899L122.86 58.9168H115.616Z" fill="white"/>
<path d="M124.968 38.5759H132.248L133.562 46.698V58.9168H126.317V45.5937L124.968 38.5759ZM140.558 37.9703C142.429 37.9703 144.015 38.3621 145.317 39.1458C146.619 39.9295 147.614 41.0339 148.3 42.4588C148.987 43.8837 149.33 45.5699 149.33 47.5173V58.9168H142.085V48.586C142.085 47.0661 141.742 45.9024 141.056 45.0949C140.369 44.2875 139.375 43.8837 138.072 43.8837C137.149 43.8837 136.344 44.0975 135.658 44.525C134.995 44.9524 134.474 45.558 134.095 46.3418C133.74 47.1255 133.562 48.0517 133.562 49.1204L131.325 47.9448C131.609 45.7837 132.189 43.9669 133.065 42.4944C133.941 40.9982 135.018 39.8702 136.297 39.1102C137.599 38.3502 139.019 37.9703 140.558 37.9703ZM156.291 37.9703C158.161 37.9703 159.747 38.3621 161.05 39.1458C162.375 39.9295 163.382 41.0339 164.068 42.4588C164.755 43.8837 165.098 45.5699 165.098 47.5173V58.9168H157.853V48.586C157.853 47.0661 157.51 45.9024 156.824 45.0949C156.137 44.2875 155.143 43.8837 153.84 43.8837C152.917 43.8837 152.112 44.0975 151.426 44.525C150.763 44.9524 150.242 45.558 149.863 46.3418C149.508 47.1255 149.33 48.0517 149.33 49.1204L147.093 47.9448C147.377 45.7837 147.945 43.9669 148.798 42.4944C149.674 40.9982 150.763 39.8702 152.065 39.1102C153.367 38.3502 154.776 37.9703 156.291 37.9703Z" fill="white"/>
<path d="M168.827 31.4868H176.108V44.4893L175.149 46.3418V51.4715L176.108 53.2527V58.9168H168.827V31.4868ZM173.764 48.7641C174.095 46.5555 174.746 44.6556 175.717 43.0644C176.688 41.4495 177.931 40.2027 179.446 39.3239C180.985 38.4215 182.701 37.9703 184.595 37.9703C186.584 37.9703 188.324 38.4215 189.816 39.3239C191.331 40.2264 192.503 41.4851 193.332 43.1C194.184 44.715 194.61 46.603 194.61 48.7641C194.61 50.8778 194.184 52.754 193.332 54.3927C192.503 56.0076 191.331 57.2663 189.816 58.1687C188.324 59.0474 186.584 59.4868 184.595 59.4868C182.678 59.4868 180.961 59.0474 179.446 58.1687C177.931 57.2663 176.688 56.0076 175.717 54.3927C174.746 52.7777 174.095 50.9016 173.764 48.7641ZM187.294 48.7641C187.294 47.7429 187.081 46.8405 186.655 46.0568C186.253 45.2731 185.684 44.6556 184.951 44.2044C184.217 43.7531 183.364 43.5275 182.394 43.5275C181.423 43.5275 180.499 43.7531 179.623 44.2044C178.747 44.6556 177.978 45.2731 177.315 46.0568C176.652 46.8405 176.143 47.7429 175.788 48.7641C176.143 49.7616 176.652 50.6522 177.315 51.4359C177.978 52.2196 178.747 52.8371 179.623 53.2883C180.499 53.7158 181.423 53.9295 182.394 53.9295C183.364 53.9295 184.217 53.7158 184.951 53.2883C185.684 52.8371 186.253 52.2196 186.655 51.4359C187.081 50.6522 187.294 49.7616 187.294 48.7641Z" fill="white"/>
<path d="M197.751 31.4868H205.032V58.9168H197.751V31.4868Z" fill="white"/>
<path d="M220.92 59.4868C218.458 59.4868 216.256 59.0356 214.314 58.1331C212.397 57.2307 210.881 55.972 209.769 54.357C208.656 52.7183 208.099 50.8184 208.099 48.6573C208.099 46.5436 208.632 44.6912 209.698 43.1C210.763 41.4851 212.219 40.2264 214.066 39.3239C215.936 38.4215 218.043 37.9703 220.387 37.9703C222.826 37.9703 224.897 38.5046 226.602 39.5733C228.33 40.6183 229.656 42.1026 230.579 44.0262C231.526 45.9499 232 48.2179 232 50.8303H213.959V46.4486H227.916L225.537 47.9804C225.442 46.9355 225.181 46.0568 224.755 45.3443C224.329 44.6081 223.761 44.05 223.051 43.67C222.364 43.29 221.535 43.1 220.565 43.1C219.499 43.1 218.588 43.3138 217.83 43.7412C217.073 44.1687 216.481 44.7625 216.054 45.5224C215.628 46.2586 215.415 47.1255 215.415 48.1229C215.415 49.4054 215.699 50.4978 216.268 51.4003C216.859 52.279 217.712 52.9558 218.825 53.4308C219.961 53.9058 221.346 54.1433 222.98 54.1433C224.471 54.1433 225.951 53.9533 227.419 53.5733C228.91 53.1696 230.26 52.6115 231.467 51.899V56.5301C230.07 57.48 228.472 58.2162 226.673 58.7387C224.897 59.2374 222.98 59.4868 220.92 59.4868Z" fill="white"/>
<path d="M1.488 17.184V4.944H3.432V6.744H3.528C3.752 6.344 4.056 5.984 4.44 5.664C4.84 5.328 5.288 5.064 5.784 4.872C6.296 4.664 6.816 4.56 7.344 4.56C8.256 4.56 9.04 4.784 9.696 5.232C10.352 5.664 10.824 6.232 11.112 6.936C11.528 6.248 12.088 5.68 12.792 5.232C13.496 4.784 14.336 4.56 15.312 4.56C16.768 4.56 17.84 5 18.528 5.88C19.216 6.76 19.56 7.912 19.56 9.336V17.184H17.544V9.648C17.544 8.464 17.304 7.632 16.824 7.152C16.344 6.656 15.664 6.408 14.784 6.408C14.16 6.408 13.6 6.592 13.104 6.96C12.624 7.312 12.24 7.784 11.952 8.376C11.68 8.952 11.544 9.584 11.544 10.272V17.184H9.504V9.672C9.504 8.488 9.264 7.648 8.784 7.152C8.304 6.656 7.632 6.408 6.768 6.408C6.144 6.408 5.584 6.592 5.088 6.96C4.608 7.328 4.224 7.808 3.936 8.4C3.664 8.992 3.528 9.632 3.528 10.32V17.184H1.488Z" fill="white"/>
<path d="M25.6811 17.568C24.7691 17.568 23.9691 17.392 23.2811 17.04C22.5931 16.688 22.0491 16.208 21.6491 15.6C21.2651 14.976 21.0731 14.272 21.0731 13.488C21.0731 12.592 21.3051 11.84 21.7691 11.232C22.2331 10.608 22.8571 10.144 23.6411 9.84C24.4251 9.52 25.2891 9.36 26.2331 9.36C26.7771 9.36 27.2811 9.408 27.7451 9.504C28.2091 9.584 28.6091 9.688 28.9451 9.816C29.2971 9.928 29.5611 10.04 29.7371 10.152V9.408C29.7371 8.48 29.4091 7.744 28.7531 7.2C28.0971 6.656 27.2971 6.384 26.3531 6.384C25.6811 6.384 25.0491 6.536 24.4571 6.84C23.8811 7.128 23.4251 7.536 23.0891 8.064L21.5531 6.912C21.8731 6.432 22.2731 6.016 22.7531 5.664C23.2331 5.312 23.7771 5.04 24.3851 4.848C25.0091 4.656 25.6651 4.56 26.3531 4.56C28.0171 4.56 29.3211 5 30.2651 5.88C31.2091 6.76 31.6811 7.944 31.6811 9.432V17.184H29.7371V15.432H29.6411C29.4331 15.784 29.1371 16.128 28.7531 16.464C28.3691 16.784 27.9131 17.048 27.3851 17.256C26.8731 17.464 26.3051 17.568 25.6811 17.568ZM25.8731 15.768C26.5771 15.768 27.2171 15.592 27.7931 15.24C28.3851 14.888 28.8571 14.416 29.2091 13.824C29.5611 13.232 29.7371 12.584 29.7371 11.88C29.3691 11.624 28.9051 11.416 28.3451 11.256C27.8011 11.096 27.2011 11.016 26.5451 11.016C25.3771 11.016 24.5211 11.256 23.9771 11.736C23.4331 12.216 23.1611 12.808 23.1611 13.512C23.1611 14.184 23.4171 14.728 23.9291 15.144C24.4411 15.56 25.0891 15.768 25.8731 15.768Z" fill="white"/>
<path d="M38.9591 17.568C37.8551 17.568 36.8551 17.288 35.9591 16.728C35.0791 16.168 34.3831 15.4 33.8711 14.424C33.3591 13.448 33.1031 12.328 33.1031 11.064C33.1031 9.8 33.3591 8.68 33.8711 7.704C34.3831 6.728 35.0791 5.96 35.9591 5.4C36.8551 4.84 37.8551 4.56 38.9591 4.56C39.6151 4.56 40.2151 4.664 40.7591 4.872C41.3031 5.08 41.7751 5.352 42.1751 5.688C42.5911 6.024 42.9111 6.384 43.1351 6.768H43.2311L43.1351 5.064V0H45.1751V17.184H43.2311V15.384H43.1351C42.9111 15.752 42.5911 16.104 42.1751 16.44C41.7751 16.776 41.3031 17.048 40.7591 17.256C40.2151 17.464 39.6151 17.568 38.9591 17.568ZM39.1751 15.72C39.8791 15.72 40.5351 15.536 41.1431 15.168C41.7671 14.784 42.2711 14.248 42.6551 13.56C43.0391 12.856 43.2311 12.024 43.2311 11.064C43.2311 10.104 43.0391 9.28 42.6551 8.592C42.2711 7.888 41.7671 7.352 41.1431 6.984C40.5351 6.6 39.8791 6.408 39.1751 6.408C38.4711 6.408 37.8071 6.6 37.1831 6.984C36.5751 7.352 36.0791 7.888 35.6951 8.592C35.3111 9.28 35.1191 10.104 35.1191 11.064C35.1191 12.008 35.3111 12.832 35.6951 13.536C36.0791 14.24 36.5751 14.784 37.1831 15.168C37.8071 15.536 38.4711 15.72 39.1751 15.72Z" fill="white"/>
<path d="M52.8698 17.568C51.6858 17.568 50.6298 17.288 49.7018 16.728C48.7898 16.168 48.0698 15.4 47.5418 14.424C47.0298 13.448 46.7738 12.336 46.7738 11.088C46.7738 9.92 47.0138 8.84 47.4938 7.848C47.9898 6.856 48.6778 6.064 49.5578 5.472C50.4538 4.864 51.5018 4.56 52.7018 4.56C53.9178 4.56 54.9578 4.832 55.8218 5.376C56.7018 5.904 57.3737 6.64 57.8377 7.584C58.3177 8.528 58.5578 9.608 58.5578 10.824C58.5578 10.936 58.5498 11.048 58.5338 11.16C58.5338 11.272 58.5258 11.368 58.5098 11.448H47.9738V9.768H56.3978C56.3818 9.432 56.3017 9.072 56.1577 8.688C56.0297 8.288 55.8138 7.92 55.5098 7.584C55.2218 7.232 54.8458 6.952 54.3818 6.744C53.9338 6.52 53.3738 6.408 52.7018 6.408C51.9018 6.408 51.2058 6.616 50.6138 7.032C50.0378 7.432 49.5897 7.984 49.2697 8.688C48.9657 9.392 48.8138 10.192 48.8138 11.088C48.8138 12.128 49.0137 12.992 49.4137 13.68C49.8137 14.368 50.3257 14.88 50.9497 15.216C51.5897 15.552 52.2537 15.72 52.9417 15.72C53.8377 15.72 54.5738 15.512 55.1497 15.096C55.7418 14.664 56.2138 14.136 56.5658 13.512L58.2938 14.352C57.8138 15.28 57.1258 16.048 56.2298 16.656C55.3338 17.264 54.2138 17.568 52.8698 17.568Z" fill="white"/>
<path d="M71.229 17.568C70.573 17.568 69.973 17.464 69.429 17.256C68.885 17.048 68.405 16.776 67.989 16.44C67.589 16.104 67.277 15.752 67.053 15.384H66.957V17.184H65.013V0H67.053V5.064L66.957 6.768H67.053C67.277 6.384 67.589 6.024 67.989 5.688C68.405 5.352 68.885 5.08 69.429 4.872C69.973 4.664 70.573 4.56 71.229 4.56C72.349 4.56 73.349 4.84 74.229 5.4C75.109 5.96 75.805 6.728 76.317 7.704C76.829 8.68 77.085 9.8 77.085 11.064C77.085 12.328 76.829 13.448 76.317 14.424C75.805 15.4 75.109 16.168 74.229 16.728C73.349 17.288 72.349 17.568 71.229 17.568ZM71.013 15.72C71.717 15.72 72.373 15.536 72.981 15.168C73.605 14.784 74.101 14.24 74.469 13.536C74.853 12.832 75.045 12.008 75.045 11.064C75.045 10.104 74.853 9.28 74.469 8.592C74.101 7.888 73.605 7.352 72.981 6.984C72.373 6.6 71.717 6.408 71.013 6.408C70.309 6.408 69.645 6.6 69.021 6.984C68.413 7.352 67.917 7.888 67.533 8.592C67.149 9.28 66.957 10.104 66.957 11.064C66.957 12.024 67.149 12.856 67.533 13.56C67.917 14.248 68.413 14.784 69.021 15.168C69.645 15.536 70.309 15.72 71.013 15.72Z" fill="white"/>
<path d="M81.7852 21.744C81.7372 21.856 81.6812 21.976 81.6172 22.104C81.5532 22.248 81.5133 22.336 81.4973 22.368H79.3853C79.4813 22.16 79.5853 21.928 79.6973 21.672C79.8093 21.432 79.9452 21.136 80.1052 20.784C80.2012 20.576 80.2892 20.384 80.3692 20.208C80.4492 20.032 80.5372 19.832 80.6332 19.608C80.7452 19.4 80.8733 19.136 81.0173 18.816L82.6973 15.168L83.1533 14.04L86.8493 4.944H89.0573L82.7213 19.56C82.6573 19.704 82.5532 19.928 82.4092 20.232C82.2812 20.552 82.1533 20.856 82.0253 21.144C81.9133 21.448 81.8332 21.648 81.7852 21.744ZM82.2412 16.68L77.0573 4.944H79.2653L83.1052 14.04H83.2972L82.2412 16.68Z" fill="white"/>
<path d="M313 52.184L320 45.184L313 38.184L306 45.184V31.184H320L327 38.184V52.184L320 59.184H306L299 52.184L292 59.184H285V52.184L292 45.184L285 38.184V31.184H292L313 52.184Z" fill="white"/>
<path d="M254 54.184L259.208 37H262.304L257.096 54.184H254Z" fill="white"/>
</svg>
